<svg width="55" height="55" viewBox="0 0 55 55" fill="none" xmlns="http://www.w3.org/2000/svg">
<circle cx="27.5" cy="27.5" r="27.5" fill="#1ABC9C"/>
<path d="M18.5107 36.9111C18.1976 37.1396 17.8379 37.2539 17.4316 37.2539C17.0339 37.2539 16.7165 37.1523 16.4795 36.9492C16.234 36.7376 16.1113 36.4964 16.1113 36.2256C16.1113 35.9548 16.1536 35.7559 16.2383 35.6289C16.4837 35.7728 16.7842 35.8447 17.1396 35.8447C17.5036 35.8447 17.7744 35.7982 17.9521 35.7051C18.1383 35.6035 18.3161 35.4681 18.4854 35.2988L20.2881 29.9541L20.542 29.0781C20.6182 28.8158 20.6562 28.5745 20.6562 28.3545C20.6562 27.5843 20.2923 27.0934 19.5645 26.8818C20.2331 26.6279 20.7028 26.3529 20.9736 26.0566C21.3968 25.5911 21.7311 24.9775 21.9766 24.2158L23.373 19.5312C23.1022 19.1673 22.7806 18.9854 22.4082 18.9854C22.0358 18.9854 21.6888 19.0658 21.3672 19.2266C21.2826 19.0742 21.2402 18.9049 21.2402 18.7188C21.2402 18.5241 21.2783 18.3421 21.3545 18.1729C21.4391 18.0036 21.5534 17.8555 21.6973 17.7285C22.0189 17.4577 22.4759 17.3223 23.0684 17.3223C23.6608 17.3223 24.1644 17.5 24.5791 17.8555C25.0023 17.5 25.527 17.3223 26.1533 17.3223C26.7881 17.3223 27.2917 17.4915 27.6641 17.8301C28.2057 17.4915 28.7559 17.3223 29.3145 17.3223C29.873 17.3223 30.3047 17.4281 30.6094 17.6396C30.9225 17.8512 31.0791 18.139 31.0791 18.5029C31.0791 18.6722 31.0283 18.8203 30.9268 18.9473C30.7321 18.8034 30.5036 18.7314 30.2412 18.7314C29.6742 18.7314 29.306 19.1165 29.1367 19.8867L30.7617 25.0791C30.9648 25.7308 31.4727 26.2386 32.2852 26.6025C32.5137 26.7041 32.7464 26.7972 32.9834 26.8818C32.137 27.1611 31.7139 27.5801 31.7139 28.1387C31.7139 28.3503 31.7477 28.5365 31.8154 28.6973L34.2402 35.1973C34.6126 35.5866 34.9893 35.7812 35.3701 35.7812C35.751 35.7812 36.0472 35.7093 36.2588 35.5654C36.3519 35.6331 36.3984 35.7601 36.3984 35.9463C36.3984 36.1325 36.3688 36.306 36.3096 36.4668C36.2503 36.6191 36.1572 36.7546 36.0303 36.873C35.7594 37.127 35.3617 37.2539 34.8369 37.2539C34.3122 37.2539 33.8551 37.11 33.4658 36.8223C33.0257 37.11 32.5264 37.2539 31.9678 37.2539C31.4176 37.2539 30.9437 37.1143 30.5459 36.835C30.165 37.1143 29.7165 37.2539 29.2002 37.2539C28.6839 37.2539 28.2565 37.1481 27.918 36.9365C27.5794 36.7165 27.4017 36.4076 27.3848 36.0098C27.3848 35.7728 27.4313 35.6247 27.5244 35.5654C27.7529 35.7093 27.9857 35.7812 28.2227 35.7812C28.722 35.7812 29.0732 35.6797 29.2764 35.4766L28.3115 32.2393H21.4434L20.6055 35.0449C20.9525 35.5781 21.3714 35.8447 21.8623 35.8447C22.3617 35.8447 22.734 35.7728 22.9795 35.6289C23.0726 35.7812 23.1191 35.9928 23.1191 36.2637C23.1191 36.526 22.988 36.7588 22.7256 36.9619C22.4632 37.1566 22.1247 37.2539 21.71 37.2539C21.2952 37.2539 20.9144 37.1481 20.5674 36.9365C20.2627 37.1481 19.9115 37.2539 19.5137 37.2539C19.1243 37.2539 18.79 37.1396 18.5107 36.9111ZM27.791 30.5254L24.8457 20.7373L21.9512 30.5254H27.791ZM30.2158 33.6357C30.3682 33.6357 30.4443 33.4665 30.4443 33.1279C30.4443 32.5355 30.3555 31.96 30.1777 31.4014L29.6953 29.916C29.3568 28.7988 29.1875 28.0964 29.1875 27.8086C29.179 27.3346 29.3864 27.0215 29.8096 26.8691C29.2256 26.7507 28.8701 26.5687 28.7432 26.3232C28.6839 26.2217 28.6331 26.1413 28.5908 26.082C28.557 26.0228 28.5189 25.9551 28.4766 25.8789C28.4427 25.7943 28.4004 25.6885 28.3496 25.5615C28.2988 25.4346 28.2311 25.2526 28.1465 25.0156L27.3594 22.6416C27.1732 22.0492 26.8981 21.6006 26.5342 21.2959C26.4242 21.2028 26.3226 21.1478 26.2295 21.1309C26.7965 23.179 27.1689 24.4909 27.3467 25.0664C28.5739 28.8411 29.3102 31.0798 29.5557 31.7822L30.2158 33.6357ZM33.9609 34.7783L33.9863 34.8545L33.9609 34.7783Z" fill="white"/>
</svg>
